<svg width="30" height="30" viewBox="0 0 30 30" fill="none" xmlns="http://www.w3.org/2000/svg">
<g clip-path="url(#clip0_73_47)">
<path d="M9.59633 8.42076L9.59633 19.7928C9.59633 21.186 10.1498 22.5221 11.1349 23.5072C12.12 24.4923 13.4561 25.0457 14.8492 25.0457C16.2424 25.0457 17.5785 24.4923 18.5636 23.5072C19.5487 22.5221 20.1022 21.186 20.1022 19.7928L20.1022 8.42076C20.1022 7.49199 19.7332 6.60125 19.0765 5.94451C18.4197 5.28777 17.529 4.91881 16.6002 4.91881C15.6714 4.91881 14.7807 5.28777 14.124 5.94451C13.4672 6.60125 13.0983 7.49199 13.0983 8.42076L13.1045 19.799C13.1045 20.2634 13.2889 20.7087 13.6173 21.0371C13.9457 21.3655 14.391 21.55 14.8554 21.55C15.3198 21.55 15.7652 21.3655 16.0936 21.0371C16.4219 20.7087 16.6064 20.2634 16.6064 19.799L16.6002 9.29934" stroke="#1B1B1B" stroke-width="2" stroke-linecap="round" stroke-linejoin="round"/>
</g>
<defs>
<clipPath id="clip0_73_47">
<rect width="21" height="21" fill="white" transform="matrix(-0.707107 -0.707107 -0.707107 0.707107 29.6985 14.8492)"/>
</clipPath>
</defs>
</svg>
